<svg xmlns="http://www.w3.org/2000/svg" width="780" height="764" viewBox="0 0 780 764" role="img" aria-label="How much slop each revision arm removes">
<style>text{font-family:-apple-system,BlinkMacSystemFont,'Segoe UI',Helvetica,Arial,sans-serif}.t{font-size:15px;font-weight:600}.s{font-size:11.5px}.l{font-size:12px}.n{font-size:10px}.a{font-size:10.5px}</style>
<rect width="780" height="764" fill="#0d1117"/>
<text class="t" x="24" y="30" fill="#e6edf3">How much slop each revision arm removes</text>
<text class="s" x="24" y="49" fill="#9198a1">sonnet via the Claude Code CLI - 3 revisions per draft per arm - 2026-09-20</text>
<rect x="24" y="66" width="10" height="10" rx="2" fill="#6e7681"/>
<text class="a" x="38" y="75" fill="#9198a1">original draft</text>
<rect x="144" y="66" width="10" height="10" rx="2" fill="#f0788a"/>
<text class="a" x="158" y="75" fill="#9198a1">revised, no guidance</text>
<rect x="300" y="66" width="10" height="10" rx="2" fill="#d29922"/>
<text class="a" x="314" y="75" fill="#9198a1">revised, generic advice</text>
<rect x="474" y="66" width="10" height="10" rx="2" fill="#57ab5a"/>
<text class="a" x="488" y="75" fill="#9198a1">revised with the skill</text>
<line x1="196.0" y1="86" x2="196.0" y2="708" stroke="#30363d" stroke-width="1"/>
<text class="a" x="196.0" y="722" text-anchor="middle" fill="#9198a1">0</text>
<line x1="261.2" y1="86" x2="261.2" y2="708" stroke="#30363d" stroke-width="1"/>
<text class="a" x="261.2" y="722" text-anchor="middle" fill="#9198a1">4</text>
<line x1="326.5" y1="86" x2="326.5" y2="708" stroke="#30363d" stroke-width="1"/>
<text class="a" x="326.5" y="722" text-anchor="middle" fill="#9198a1">8</text>
<line x1="391.8" y1="86" x2="391.8" y2="708" stroke="#30363d" stroke-width="1"/>
<text class="a" x="391.8" y="722" text-anchor="middle" fill="#9198a1">12</text>
<line x1="457.0" y1="86" x2="457.0" y2="708" stroke="#30363d" stroke-width="1"/>
<text class="a" x="457.0" y="722" text-anchor="middle" fill="#9198a1">16</text>
<line x1="522.2" y1="86" x2="522.2" y2="708" stroke="#30363d" stroke-width="1"/>
<text class="a" x="522.2" y="722" text-anchor="middle" fill="#9198a1">20</text>
<line x1="587.5" y1="86" x2="587.5" y2="708" stroke="#30363d" stroke-width="1"/>
<text class="a" x="587.5" y="722" text-anchor="middle" fill="#9198a1">24</text>
<line x1="652.8" y1="86" x2="652.8" y2="708" stroke="#30363d" stroke-width="1"/>
<text class="a" x="652.8" y="722" text-anchor="middle" fill="#9198a1">28</text>
<line x1="718.0" y1="86" x2="718.0" y2="708" stroke="#30363d" stroke-width="1"/>
<text class="a" x="718.0" y="722" text-anchor="middle" fill="#9198a1">32</text>
<text class="a" x="457.0" y="740" text-anchor="middle" fill="#9198a1">slopscore (0-32, sum of 16 audit categories)</text>
<text class="a" x="24" y="752" fill="#9198a1">Lower is better. The gap that matters is generic advice vs the skill.</text>
<text class="l" x="184" y="102.0" text-anchor="end" fill="#e6edf3">bio-obama</text>
<rect x="196" y="92.0" width="228.4" height="9" rx="2" fill="#6e7681"/>
<text class="n" x="429.4" y="100.0" fill="#9198a1">14</text>
<rect x="196" y="103.5" width="190.4" height="9" rx="2" fill="#f0788a"/>
<text class="n" x="391.4" y="111.5" fill="#9198a1">11.67</text>
<rect x="196" y="115.0" width="190.4" height="9" rx="2" fill="#d29922"/>
<text class="n" x="391.4" y="123.0" fill="#9198a1">11.67</text>
<rect x="196" y="126.5" width="32.6" height="9" rx="2" fill="#57ab5a"/>
<text class="n" x="233.6" y="134.5" fill="#9198a1">2</text>
<text class="l" x="184" y="163.0" text-anchor="end" fill="#e6edf3">blog-ai-education</text>
<rect x="196" y="153.0" width="212.1" height="9" rx="2" fill="#6e7681"/>
<text class="n" x="413.1" y="161.0" fill="#9198a1">13</text>
<rect x="196" y="164.5" width="184.8" height="9" rx="2" fill="#f0788a"/>
<text class="n" x="385.8" y="172.5" fill="#9198a1">11.33</text>
<rect x="196" y="176.0" width="190.4" height="9" rx="2" fill="#d29922"/>
<text class="n" x="391.4" y="184.0" fill="#9198a1">11.67</text>
<rect x="196" y="187.5" width="125.1" height="9" rx="2" fill="#57ab5a"/>
<text class="n" x="326.1" y="195.5" fill="#9198a1">7.67</text>
<text class="l" x="184" y="224.0" text-anchor="end" fill="#e6edf3">founder-retrospective</text>
<rect x="196" y="214.0" width="212.1" height="9" rx="2" fill="#6e7681"/>
<text class="n" x="413.1" y="222.0" fill="#9198a1">13</text>
<rect x="196" y="225.5" width="146.8" height="9" rx="2" fill="#f0788a"/>
<text class="n" x="347.8" y="233.5" fill="#9198a1">9</text>
<rect x="196" y="237.0" width="125.1" height="9" rx="2" fill="#d29922"/>
<text class="n" x="326.1" y="245.0" fill="#9198a1">7.67</text>
<rect x="196" y="248.5" width="146.8" height="9" rx="2" fill="#57ab5a"/>
<text class="n" x="347.8" y="256.5" fill="#9198a1">9</text>
<text class="l" x="184" y="285.0" text-anchor="end" fill="#e6edf3">oped-remote-work</text>
<rect x="196" y="275.0" width="212.1" height="9" rx="2" fill="#6e7681"/>
<text class="n" x="413.1" y="283.0" fill="#9198a1">13</text>
<rect x="196" y="286.5" width="174.1" height="9" rx="2" fill="#f0788a"/>
<text class="n" x="375.1" y="294.5" fill="#9198a1">10.67</text>
<rect x="196" y="298.0" width="146.8" height="9" rx="2" fill="#d29922"/>
<text class="n" x="347.8" y="306.0" fill="#9198a1">9</text>
<rect x="196" y="309.5" width="97.9" height="9" rx="2" fill="#57ab5a"/>
<text class="n" x="298.9" y="317.5" fill="#9198a1">6</text>
<text class="l" x="184" y="346.0" text-anchor="end" fill="#e6edf3">explainer-attention</text>
<rect x="196" y="336.0" width="179.4" height="9" rx="2" fill="#6e7681"/>
<text class="n" x="380.4" y="344.0" fill="#9198a1">11</text>
<rect x="196" y="347.5" width="141.4" height="9" rx="2" fill="#f0788a"/>
<text class="n" x="342.4" y="355.5" fill="#9198a1">8.67</text>
<rect x="196" y="359.0" width="130.5" height="9" rx="2" fill="#d29922"/>
<text class="n" x="331.5" y="367.0" fill="#9198a1">8</text>
<rect x="196" y="370.5" width="54.3" height="9" rx="2" fill="#57ab5a"/>
<text class="n" x="255.3" y="378.5" fill="#9198a1">3.33</text>
<text class="l" x="184" y="407.0" text-anchor="end" fill="#e6edf3">history-rome</text>
<rect x="196" y="397.0" width="179.4" height="9" rx="2" fill="#6e7681"/>
<text class="n" x="380.4" y="405.0" fill="#9198a1">11</text>
<rect x="196" y="408.5" width="179.4" height="9" rx="2" fill="#f0788a"/>
<text class="n" x="380.4" y="416.5" fill="#9198a1">11</text>
<rect x="196" y="420.0" width="152.2" height="9" rx="2" fill="#d29922"/>
<text class="n" x="353.2" y="428.0" fill="#9198a1">9.33</text>
<rect x="196" y="431.5" width="92.5" height="9" rx="2" fill="#57ab5a"/>
<text class="n" x="293.5" y="439.5" fill="#9198a1">5.67</text>
<text class="l" x="184" y="468.0" text-anchor="end" fill="#e6edf3">travel-lisbon</text>
<rect x="196" y="458.0" width="179.4" height="9" rx="2" fill="#6e7681"/>
<text class="n" x="380.4" y="466.0" fill="#9198a1">11</text>
<rect x="196" y="469.5" width="168.5" height="9" rx="2" fill="#f0788a"/>
<text class="n" x="369.5" y="477.5" fill="#9198a1">10.33</text>
<rect x="196" y="481.0" width="179.4" height="9" rx="2" fill="#d29922"/>
<text class="n" x="380.4" y="489.0" fill="#9198a1">11</text>
<rect x="196" y="492.5" width="76.2" height="9" rx="2" fill="#57ab5a"/>
<text class="n" x="277.2" y="500.5" fill="#9198a1">4.67</text>
<text class="l" x="184" y="529.0" text-anchor="end" fill="#e6edf3">launch-announcement</text>
<rect x="196" y="519.0" width="163.1" height="9" rx="2" fill="#6e7681"/>
<text class="n" x="364.1" y="527.0" fill="#9198a1">10</text>
<rect x="196" y="530.5" width="152.2" height="9" rx="2" fill="#f0788a"/>
<text class="n" x="353.2" y="538.5" fill="#9198a1">9.33</text>
<rect x="196" y="542.0" width="135.9" height="9" rx="2" fill="#d29922"/>
<text class="n" x="336.9" y="550.0" fill="#9198a1">8.33</text>
<rect x="196" y="553.5" width="76.2" height="9" rx="2" fill="#57ab5a"/>
<text class="n" x="277.2" y="561.5" fill="#9198a1">4.67</text>
<text class="l" x="184" y="590.0" text-anchor="end" fill="#e6edf3">memo-migration</text>
<rect x="196" y="580.0" width="163.1" height="9" rx="2" fill="#6e7681"/>
<text class="n" x="364.1" y="588.0" fill="#9198a1">10</text>
<rect x="196" y="591.5" width="114.2" height="9" rx="2" fill="#f0788a"/>
<text class="n" x="315.2" y="599.5" fill="#9198a1">7</text>
<rect x="196" y="603.0" width="141.4" height="9" rx="2" fill="#d29922"/>
<text class="n" x="342.4" y="611.0" fill="#9198a1">8.67</text>
<rect x="196" y="614.5" width="38.0" height="9" rx="2" fill="#57ab5a"/>
<text class="n" x="239.0" y="622.5" fill="#9198a1">2.33</text>
<text class="l" x="184" y="651.0" text-anchor="end" fill="#e6edf3">product-philosophy</text>
<rect x="196" y="641.0" width="163.1" height="9" rx="2" fill="#6e7681"/>
<text class="n" x="364.1" y="649.0" fill="#9198a1">10</text>
<rect x="196" y="652.5" width="86.9" height="9" rx="2" fill="#f0788a"/>
<text class="n" x="287.9" y="660.5" fill="#9198a1">5.33</text>
<rect x="196" y="664.0" width="92.5" height="9" rx="2" fill="#d29922"/>
<text class="n" x="293.5" y="672.0" fill="#9198a1">5.67</text>
<rect x="196" y="675.5" width="92.5" height="9" rx="2" fill="#57ab5a"/>
<text class="n" x="293.5" y="683.5" fill="#9198a1">5.67</text>
</svg>
